<?xml version="1.0" encoding="UTF-8" standalone="no"?>
<!-- Created with Inkscape (http://www.inkscape.org/) -->

<svg
   xmlns:dc="http://purl.org/dc/elements/1.1/"
   xmlns:cc="http://creativecommons.org/ns#"
   xmlns:rdf="http://www.w3.org/1999/02/22-rdf-syntax-ns#"
   xmlns:svg="http://www.w3.org/2000/svg"
   xmlns="http://www.w3.org/2000/svg"
   xmlns:sodipodi="http://sodipodi.sourceforge.net/DTD/sodipodi-0.dtd"
   xmlns:inkscape="http://www.inkscape.org/namespaces/inkscape"
   width="210mm"
   height="297mm"
   id="svg2"
   version="1.1"
   inkscape:version="0.48.4 r9939"
   sodipodi:docname="Nouveau document 1">
  <defs
     id="defs4" />
  <sodipodi:namedview
     id="base"
     pagecolor="#ffffff"
     bordercolor="#666666"
     borderopacity="1.0"
     inkscape:pageopacity="0.0"
     inkscape:pageshadow="2"
     inkscape:zoom="0.49497475"
     inkscape:cx="265.43558"
     inkscape:cy="557.43652"
     inkscape:document-units="px"
     inkscape:current-layer="layer1"
     showgrid="false"
     inkscape:window-width="1366"
     inkscape:window-height="703"
     inkscape:window-x="0"
     inkscape:window-y="26"
     inkscape:window-maximized="1" />
  <metadata
     id="metadata7">
    <rdf:RDF>
      <cc:Work
         rdf:about="">
        <dc:format>image/svg+xml</dc:format>
        <dc:type
           rdf:resource="http://purl.org/dc/dcmitype/StillImage" />
        <dc:title></dc:title>
      </cc:Work>
    </rdf:RDF>
  </metadata>
  <g
     inkscape:label="Calque 1"
     inkscape:groupmode="layer"
     id="layer1">
    <path
       style="fill:#000000"
       d="m 445.77824,812.66507 c -3.72237,-2.04182 -31.9584,-45.37207 -66.02891,-101.32613 -49.66859,-81.57083 -58.87334,-98.37383 -55.58735,-101.47308 6.66169,-6.28309 122.03706,-67.88181 127.16414,-67.89269 4.22099,-0.008 38.93684,51.66609 138.54229,206.2222 16.66959,25.8659 18.47597,33.53157 11.24274,47.7099 -4.78605,9.38137 -7.58192,11.75615 -13.87677,11.7866 -4.33576,0.0202 -29.97594,1.9437 -56.97822,4.2727 -60.0324,5.17798 -76.07283,5.31096 -84.47792,0.7005 z m 88.44259,-6.79882 c 58.6258,-4.84727 61.25637,-5.61339 64.82186,-18.87875 0.70699,-2.63043 -1.12018,-10.15571 -4.06039,-16.7229 -6.38086,-14.25209 -141.15008,-222.5258 -143.99144,-222.5258 -1.08474,0 -29.42986,14.68623 -62.98909,32.6361 l -61.01685,32.63608 58.80431,96.47947 c 32.34237,53.06371 61.18393,97.41678 64.09234,98.56237 8.23472,3.24357 23.42769,2.84965 84.33926,-2.18657 z m -448.835022,3.94183 c -0.827069,-2.15527 -1.136836,-19.92655 -0.688361,-39.4917 l 0.815373,-35.57297 72.1986,-38.59133 c 39.70922,-21.2252 73.82306,-38.60932 75.80852,-38.63136 2.7901,-0.0309 3.60993,15.91413 3.60993,70.21118 l 0,70.25119 -7.44656,7.0013 c -7.38268,6.94117 -8.02747,7.00875 -75.12018,7.87183 -54.920774,0.70654 -67.956961,0.13196 -69.177322,-3.04814 z m 138.678322,-8.65221 7.47197,-6.49788 -0.81304,-65.14901 -0.81305,-65.14898 -70.03263,37.41087 -70.032646,37.41085 0,34.23602 0,34.236 63.373746,0 c 61.58166,0 63.58498,-0.18367 70.84565,-6.49787 z M 85.994166,724.86601 c -2.637332,-2.63731 -2.363844,-160.45907 0.284749,-164.40197 1.16693,-1.73716 50.205975,-30.85785 108.975625,-64.71262 58.76966,-33.85479 121.79903,-70.28013 140.06528,-80.94522 66.69858,-38.94328 100.92572,-57.67168 105.39794,-57.67168 4.43925,0 15.28718,5.32195 36.11131,17.71605 5.55929,3.30881 27.00226,15.77178 47.65107,27.69551 46.61713,26.91927 50.539,30.36641 50.539,44.42145 0,12.19223 -2.57534,14.56884 -34.65531,31.9812 -10.3244,5.60388 -69.45506,38.12389 -131.40145,72.2667 C 127.50003,706.34817 90.259973,726.79132 89.126166,726.79132 c -0.663765,0 -2.073261,-0.86639 -3.132155,-1.92531 z M 330.98805,587.20189 c 210.1275,-115.94667 236.90893,-131.49608 237.67719,-137.9963 1.58034,-13.37151 -0.0202,-14.51099 -104.42541,-74.27591 l -22.69716,-12.9928 -10.50406,5.54066 c -17.37679,9.1659 -318.68191,183.02257 -330.36408,190.62404 l -10.829796,7.04684 0,76.48953 c 0,42.06923 0.974682,76.43218 2.165971,76.36205 1.191276,-0.0701 108.731075,-58.92923 238.977345,-130.79811 z m 248.74648,-148.90264 -1.79887,-11.24947 -77.2667,-43.89224 C 327.09412,284.55641 300.75864,268.95727 300.71515,264.72031 c -0.0259,-2.67169 28.17088,-20.22858 73.57606,-45.8101 68.62744,-38.66502 74.35628,-41.34455 84.46932,-39.50822 5.96687,1.08344 15.39733,4.95646 20.95663,8.60669 5.55928,3.65024 31.55077,18.70131 57.75886,33.44683 26.2081,14.74555 51.8747,29.92874 57.03689,33.74043 l 9.38582,6.93037 0,87.29271 c 0,94.57324 -0.87002,100.12969 -15.67836,100.12969 -5.53837,0 -6.99598,-1.9323 -8.48584,-11.24946 z m 18.38832,-88.15255 c 0,-60.76119 -0.91644,-82.606 -3.60994,-86.04908 -1.98546,-2.53802 -28.95164,-18.97411 -59.92483,-36.52465 -30.9732,-17.55052 -57.76866,-33.15838 -59.5455,-34.68414 -1.77683,-1.52575 -8.14316,-4.13051 -14.14743,-5.78836 -10.71188,-2.95772 -12.23676,-2.27103 -81.23431,36.5808 -38.67462,21.77729 -70.31499,40.24485 -70.31193,41.03904 0.006,1.26007 132.71465,78.24832 161.7896,93.85817 53.0262,28.4689 107.54971,60.78547 111.09493,65.84697 2.38569,3.40604 4.38087,9.47748 4.43371,13.4921 l 0.0962,7.29925 5.67981,-6.81781 c 5.35223,-6.42468 5.67972,-11.51332 5.67972,-88.25229 z m -506.965424,-2.98873 -7.088573,-7.08858 0,-70.72485 c 0,-69.24477 0.136029,-70.87842 6.497872,-78.06282 3.573827,-4.0359 41.586385,-26.32861 84.472355,-49.53936 103.14084,-55.821896 110.98455,-59.688795 117.57743,-57.964721 10.59951,2.771847 146.50536,81.306021 146.58744,84.706601 0.045,1.86887 -6.74079,7.24394 -15.07972,11.94453 -8.33894,4.70062 -81.02014,45.73258 -161.51376,91.18218 -105.03011,59.30375 -148.89491,82.63562 -155.35824,82.63562 -5.71154,0 -11.599346,-2.59315 -16.094804,-7.0886 z m 82.777104,-33.62043 c 33.96326,-19.21323 97.48968,-55.09305 141.16983,-79.73293 43.68015,-24.63991 87.45066,-49.42409 97.26781,-55.076 l 17.84938,-10.27623 -62.6125,-35.95291 C 284.14611,84.573989 290.88432,87.021809 271.63734,97.635379 262.98262,102.40794 220.813,125.1846 177.92703,148.25015 c -42.88597,23.06553 -80.248748,44.55588 -83.028391,47.75633 -4.497182,5.17795 -5.053905,13.11499 -5.053905,72.05298 l 0,66.23404 7.088587,7.08857 c 3.898709,3.89873 8.924889,7.08862 11.169229,7.08862 2.24433,0 31.86875,-15.71993 65.83198,-34.93315 z"
       id="path2996"
       inkscape:connector-curvature="0" />
  </g>
</svg>
